<?xml version="1.0" encoding="UTF-8"?>
<svg version="1.1" xmlns="http://www.w3.org/2000/svg" width="500" height="500">
<path d="M0 0 C1.53152885 0.00590557 3.06306589 0.00997116 4.59460449 0.01220703 C10.17647671 0.03289565 15.75817436 0.08873773 21.33984375 0.140625 C33.85921875 0.223125 46.37859375 0.305625 59.27734375 0.390625 C59.27734375 44.610625 59.27734375 88.830625 59.27734375 134.390625 C63.23734375 134.720625 67.19734375 135.050625 71.27734375 135.390625 C92.50190088 139.54603528 112.710164 148.9416524 130.27734375 161.390625 C131.03402344 161.89980469 131.79070312 162.40898437 132.5703125 162.93359375 C134.17962259 164.02895252 135.7369393 165.20031247 137.27734375 166.390625 C137.27734375 167.050625 137.27734375 167.710625 137.27734375 168.390625 C137.85613281 168.65230469 138.43492187 168.91398438 139.03125 169.18359375 C151.12157083 175.68082703 161.61009207 189.67242508 168.27734375 201.390625 C168.27734375 202.050625 168.27734375 202.710625 168.27734375 203.390625 C168.93734375 203.390625 169.59734375 203.390625 170.27734375 203.390625 C176.56506471 214.77942284 182.1943035 226.02558196 186.27734375 238.390625 C186.65503906 239.525 187.03273438 240.659375 187.421875 241.828125 C198.98420359 279.24330066 195.20673238 321.31498293 177.18847656 356.05712891 C169.62623974 370.21161573 160.67922001 382.43280871 149.60058594 394.00439453 C148.52518332 395.1309879 147.46527094 396.27235259 146.41015625 397.41796875 C127.02020324 417.91729718 98.11303681 431.74315557 70.68750477 436.92300606 C69.11413169 437.22827158 67.54462641 437.55441935 65.98051739 437.90406609 C57.89120335 439.59927623 49.9301124 439.66027039 41.70825195 439.61767578 C40.14499261 439.61706189 38.58173272 439.61733217 37.01847363 439.6184063 C32.862912 439.61885457 28.70746747 439.60733173 24.55193329 439.59318542 C20.64086064 439.58172651 16.72981529 439.58125545 12.81872559 439.57983398 C1.40908303 439.5693733 -10.00053813 439.54145077 -21.41015625 439.515625 C-46.92328125 439.474375 -72.43640625 439.433125 -98.72265625 439.390625 C-98.72265625 358.540625 -98.72265625 277.690625 -98.72265625 194.390625 C-74.30265625 194.390625 -49.88265625 194.390625 -24.72265625 194.390625 C-24.72265625 179.210625 -24.72265625 164.030625 -24.72265625 148.390625 C-28.68265625 148.060625 -32.64265625 147.730625 -36.72265625 147.390625 C-39.86854323 146.49787329 -42.70831687 145.5750203 -45.72265625 144.390625 C-46.52316406 144.12507812 -47.32367188 143.85953125 -48.1484375 143.5859375 C-55.13756644 141.12941628 -60.15075359 137.18527065 -65.72265625 132.390625 C-66.55152344 131.76414063 -67.38039062 131.13765625 -68.234375 130.4921875 C-80.52991173 120.10757406 -87.43273608 103.754198 -88.95458984 87.98779297 C-90.47815229 63.61559999 -82.73912014 43.10782218 -67.12109375 24.48046875 C-49.5518895 5.48322573 -24.85799984 -0.32706029 0 0 Z M-47.72265625 28.390625 C-47.72265625 29.050625 -47.72265625 29.710625 -47.72265625 30.390625 C-48.27953125 30.6175 -48.83640625 30.844375 -49.41015625 31.078125 C-60.63467164 37.44879589 -67.28229423 51.42115001 -71.14453125 63.1875 C-74.99723344 77.86941917 -73.72402085 93.87850067 -66.671875 107.265625 C-58.76243385 119.94609178 -47.94987113 128.18594671 -33.33433533 131.75209045 C-26.45566327 132.96822003 -19.54181225 132.75598105 -12.58203125 132.68359375 C-11.14469758 132.67917009 -9.70735903 132.67611747 -8.27001953 132.67443848 C-3.00415695 132.65885817 2.26160144 132.61697515 7.52734375 132.578125 C25.22359375 132.4853125 25.22359375 132.4853125 43.27734375 132.390625 C43.27734375 94.110625 43.27734375 55.830625 43.27734375 16.390625 C33.39796875 16.2875 23.51859375 16.184375 13.33984375 16.078125 C10.25777588 16.03260498 7.17570801 15.98708496 4.00024414 15.94018555 C-14.69684509 15.77831566 -32.22585668 16.53661839 -47.72265625 28.390625 Z M-9.72265625 148.390625 C-9.72265625 163.570625 -9.72265625 178.750625 -9.72265625 194.390625 C3.7078025 194.59974561 3.7078025 194.59974561 17.13867188 194.77856445 C45.81664259 195.25626164 71.86244793 203.00889436 92.70654297 223.81738281 C113.93916927 246.2038763 119.23246588 272.87741813 118.46533203 302.92285156 C118.09317382 309.78796219 116.63360484 315.93332816 114.27734375 322.390625 C113.97699219 323.2259375 113.67664063 324.06125 113.3671875 324.921875 C112.45507118 327.16465452 111.42031655 329.25656947 110.27734375 331.390625 C109.79652344 332.32132813 109.31570313 333.25203125 108.8203125 334.2109375 C102.51215606 345.76357997 94.386638 354.39899654 83.27734375 361.390625 C82.33246094 362.009375 81.38757813 362.628125 80.4140625 363.265625 C75.81575183 366.25234912 71.26271626 369.10004844 66.27734375 371.390625 C65.94734375 370.070625 65.61734375 368.750625 65.27734375 367.390625 C64.61734375 367.390625 63.95734375 367.390625 63.27734375 367.390625 C63.07109375 366.73964844 62.86484375 366.08867187 62.65234375 365.41796875 C60.73003526 361.18561341 58.03594104 357.67849097 55.27734375 353.953125 C54.08951297 352.32966905 52.90201599 350.70596882 51.71484375 349.08203125 C51.12832031 348.28297363 50.54179687 347.48391602 49.9375 346.66064453 C47.6911793 343.58913131 45.48116856 340.49269555 43.27734375 337.390625 C40.46974765 333.44616052 37.64602162 329.51400333 34.8046875 325.59375 C34.20978516 324.77261719 33.61488281 323.95148438 33.00195312 323.10546875 C31.82875443 321.48735208 30.65431486 319.87013423 29.47851562 318.25390625 C28.94677734 317.52042969 28.41503906 316.78695312 27.8671875 316.03125 C27.39144287 315.37672852 26.91569824 314.72220703 26.42553711 314.04785156 C25.27734375 312.390625 25.27734375 312.390625 24.27734375 310.390625 C23.61734375 310.390625 22.95734375 310.390625 22.27734375 310.390625 C22.00583496 309.6490918 21.73432617 308.90755859 21.45458984 308.14355469 C20.33877098 305.53426943 19.14387559 303.59797094 17.44140625 301.34375 C16.59509644 300.21151001 16.59509644 300.21151001 15.73168945 299.05639648 C15.12800537 298.25919189 14.52432129 297.4619873 13.90234375 296.640625 C8.48504324 289.40793378 3.20041932 282.10630193 -1.90185547 274.64746094 C-2.59239014 273.65214355 -2.59239014 273.65214355 -3.296875 272.63671875 C-3.69479248 272.05591553 -4.09270996 271.4751123 -4.50268555 270.87670898 C-5.83731837 269.10391437 -5.83731837 269.10391437 -8.72265625 267.390625 C-8.72265625 303.690625 -8.72265625 339.990625 -8.72265625 377.390625 C-14.00265625 377.390625 -19.28265625 377.390625 -24.72265625 377.390625 C-24.72265625 332.180625 -24.72265625 286.970625 -24.72265625 240.390625 C-18.78265625 240.390625 -12.84265625 240.390625 -6.72265625 240.390625 C-6.06265625 241.710625 -5.40265625 243.030625 -4.72265625 244.390625 C-3.92478555 245.61307214 -3.10043161 246.81853984 -2.25390625 248.0078125 C-1.76994385 248.69045166 -1.28598145 249.37309082 -0.78735352 250.07641602 C-0.27100342 250.79885498 0.24534668 251.52129395 0.77734375 252.265625 C1.30980713 253.01577881 1.84227051 253.76593262 2.39086914 254.53881836 C4.95475711 258.14749354 7.53122638 261.74695971 10.1171875 265.33984375 C10.98312298 266.54423484 11.84901039 267.74866049 12.71484375 268.953125 C13.12605469 269.52353516 13.53726563 270.09394531 13.9609375 270.68164062 C16.19863361 273.80631825 18.29855381 276.9714878 20.27734375 280.265625 C21.26734375 281.8125 21.26734375 281.8125 22.27734375 283.390625 C22.93734375 283.390625 23.59734375 283.390625 24.27734375 283.390625 C25.61067708 286.05729167 26.94401042 288.72395833 28.27734375 291.390625 C28.93734375 291.390625 29.59734375 291.390625 30.27734375 291.390625 C30.51839844 292.09574219 30.75945312 292.80085937 31.0078125 293.52734375 C32.4775364 296.84213642 34.3611014 299.3450907 36.58984375 302.203125 C39.32698942 305.7631746 41.91741551 309.28177098 44.21484375 313.140625 C44.89546875 314.213125 45.57609375 315.285625 46.27734375 316.390625 C46.93734375 316.390625 47.59734375 316.390625 48.27734375 316.390625 C48.53515625 317.11378906 48.79296875 317.83695313 49.05859375 318.58203125 C50.33815415 321.53076179 51.84765287 323.76179431 53.77734375 326.328125 C57.12959811 330.84290427 60.44443474 335.37892396 63.71484375 339.953125 C64.15183594 340.5608374 64.58882812 341.1685498 65.0390625 341.79467773 C68.15963704 346.15521158 68.15963704 346.15521158 69.27734375 348.390625 C69.93734375 348.390625 70.59734375 348.390625 71.27734375 348.390625 C71.60734375 349.050625 71.93734375 349.710625 72.27734375 350.390625 C87.94221293 340.80285345 97.96733951 327.4581182 102.67529297 309.49291992 C103.76605455 303.87235732 103.72045763 298.28575858 103.65234375 292.578125 C103.64074219 291.33708008 103.62914062 290.09603516 103.6171875 288.81738281 C103.22118444 266.68197651 95.27139197 248.71194958 79.90234375 232.640625 C63.73279162 217.13443912 43.82252295 210.2029137 21.74243164 210.27709961 C20.58186217 210.27697907 19.42129271 210.27685854 18.22555447 210.27673435 C14.48368321 210.27747836 10.7418623 210.28508328 7 210.29296875 C4.68387882 210.29443975 2.36775732 210.29545949 0.05163574 210.29602051 C-8.51896667 210.30125503 -17.08956196 210.31521627 -25.66015625 210.328125 C-44.82078125 210.34875 -63.98140625 210.369375 -83.72265625 210.390625 C-83.72265625 281.010625 -83.72265625 351.630625 -83.72265625 424.390625 C-63.03578125 424.431875 -42.34890625 424.473125 -21.03515625 424.515625 C-14.54384033 424.53383301 -8.05252441 424.55204102 -1.36450195 424.57080078 C4.54019823 424.57749656 4.54019823 424.57749656 10.44490051 424.58151245 C13.04072672 424.58454991 15.63634625 424.59073219 18.23213196 424.60177612 C47.53330668 425.12451594 47.53330668 425.12451594 76.15234375 419.640625 C77.01327637 419.37894531 77.87420898 419.11726563 78.76123047 418.84765625 C90.52264052 415.190398 101.62557548 410.63552864 112.27734375 404.390625 C112.27734375 403.730625 112.27734375 403.070625 112.27734375 402.390625 C113.56705078 402.05417969 113.56705078 402.05417969 114.8828125 401.7109375 C118.78431874 400.19343565 121.51136982 398.01194291 124.58984375 395.265625 C125.15670898 394.770625 125.72357422 394.275625 126.30761719 393.765625 C127.44544068 392.77027119 128.58012011 391.77131037 129.71142578 390.76855469 C131.05834869 389.58332973 132.42935308 388.42557236 133.8046875 387.2734375 C139.74462928 382.24171178 144.51420093 376.52998544 149.27734375 370.390625 C149.89222656 369.61847656 150.50710938 368.84632813 151.140625 368.05078125 C153.6565508 364.8263131 155.48902989 362.466566 156.27734375 358.390625 C156.93734375 358.390625 157.59734375 358.390625 158.27734375 358.390625 C169.93335443 336.14361985 177.45172448 314.57966486 177.51757812 289.16015625 C177.52719976 286.92408826 177.55824163 284.68897481 177.58984375 282.453125 C177.66142693 272.70345547 176.57119479 263.87659463 174.27734375 254.390625 C174.09880859 253.60445801 173.92027344 252.81829102 173.73632812 252.00830078 C166.46430869 220.70871062 145.57342824 189.82193284 118.27734375 172.390625 C117.31957031 171.76542969 116.36179687 171.14023438 115.375 170.49609375 C91.91865636 155.67361662 66.51214573 148.18345416 38.71484375 148.29296875 C37.3138026 148.29483705 35.91276079 148.296259 34.51171875 148.29725647 C30.84900057 148.30104924 27.18632292 148.31085134 23.52362061 148.32196045 C19.77616941 148.33224474 16.02871139 148.33682408 12.28125 148.34179688 C4.94657895 148.35194446 -2.38798123 148.37152428 -9.72265625 148.390625 Z " fill="#0049AD" transform="translate(210.72265625,17.609375)"/>
</svg>
